<svg xmlns="http://www.w3.org/2000/svg" version="1.1" xmlns:xlink="http://www.w3.org/1999/xlink" xmlns:svgjs="http://svgjs.dev/svgjs" width="1000" height="1000" viewBox="0 0 1000 1000"><rect width="1000" height="1000" fill="#096a2e"></rect><g transform="matrix(0.7,0,0,0.7,150,281.25)"><svg viewBox="0 0 512 320" data-background-color="#096a2e" preserveAspectRatio="xMidYMid meet" height="625" width="1000" xmlns="http://www.w3.org/2000/svg" xmlns:xlink="http://www.w3.org/1999/xlink"><g id="tight-bounds" transform="matrix(1,0,0,1,0,0)"><svg viewBox="0 0 512 320" height="320" width="512"><g><svg></svg></g><g><svg viewBox="0 0 512 320" height="320" width="512"><g><path xmlns="http://www.w3.org/2000/svg" d="M96 160c0-88.366 71.634-160 160-160 88.366 0 160 71.634 160 160 0 88.366-71.634 160-160 160-88.366 0-160-71.634-160-160zM256 314.051c85.08 0 154.051-68.971 154.051-154.051 0-85.08-68.971-154.051-154.051-154.051-85.08 0-154.051 68.971-154.051 154.051 0 85.08 68.971 154.051 154.051 154.051z" fill="#ffffff" fill-rule="nonzero" stroke="none" stroke-width="1" stroke-linecap="butt" stroke-linejoin="miter" stroke-miterlimit="10" stroke-dasharray="" stroke-dashoffset="0" font-family="none" font-weight="none" font-size="none" text-anchor="none" style="mix-blend-mode: normal" data-fill-palette-color="tertiary"></path></g><g transform="matrix(1,0,0,1,128,83.278185517066)"><svg viewBox="0 0 256 153.443628965868" height="153.443628965868" width="256"><g><svg viewBox="0 0 256 153.443628965868" height="153.443628965868" width="256"><g transform="matrix(1,0,0,1,0,92.29434038960318)"><svg viewBox="0 0 256 61.149288576264816" height="61.149288576264816" width="256"><g id="textblocktransform"><svg viewBox="0 0 256 61.149288576264816" height="61.149288576264816" width="256" id="textblock"><g><svg viewBox="0 0 256 32.981004325747605" height="32.981004325747605" width="256"><g transform="matrix(1,0,0,1,0,0)"><svg width="256" viewBox="2.299999952316284 -32.54999923706055 265.83001708984375 34.25" height="32.981004325747605" data-palette-color="#ffffff"><path d="M27.5 1.7Q23.55-4.5 19.83-10.1 16.1-15.7 13.7-19.18 11.3-22.65 10.65-23.55L10.65-23.55 10.3-23.55 10.1-4.75Q10.15-3.55 10.5-3.1 10.85-2.65 11.75-2.65L11.75-2.65 14.15-2.7 14.3-2.45 13.85 0.2Q13.25 0.15 11.55 0.08 9.85 0 8.05 0L8.05 0Q6.6 0 4.93 0.18 3.25 0.35 2.75 0.4L2.75 0.4 3.05-2.35Q4.6-2.55 5.33-3.28 6.05-4 6.1-5.5L6.1-5.5 6.75-26.45Q6.75-28 5.88-28.65 5-29.3 2.5-29.55L2.5-29.55 2.3-29.9 2.65-32.2Q3.15-32.15 4.8-32.05 6.45-31.95 7.6-31.95L7.6-31.95Q8.75-31.95 9.98-32.02 11.2-32.1 11.55-32.15L11.55-32.15Q14.9-26.85 18.32-21.75 21.75-16.65 24.03-13.35 26.3-10.05 26.9-9.2L26.9-9.2 27.25-9.2 27.2-27.15Q27.2-29.3 25.55-29.3L25.55-29.3 23.75-29.25 23.6-29.55 24-32.15Q24.6-32.1 26.2-32.02 27.8-31.95 29.5-31.95L29.5-31.95Q30.9-31.95 32.63-32.1 34.35-32.25 34.85-32.3L34.85-32.3 34.6-29.55Q32.9-29.3 32.13-28.58 31.35-27.85 31.3-26.4L31.3-26.4 30.6 1.05 27.5 1.7ZM52.25 0.45L52.05 0.1 52.25-2.35Q54.8-2.55 55.62-2.9 56.45-3.25 56.45-4.2L56.45-4.2Q56.45-5.1 56.1-6.3L56.1-6.3 54.7-11Q53.45-11.05 49.8-11.05L49.8-11.05Q47.35-11.05 44.65-10.7L44.65-10.7 43.05-6.1Q42.65-4.8 42.65-4.35L42.65-4.35Q42.65-3.35 43.27-2.93 43.9-2.5 45.35-2.5L45.35-2.5 47.9-2.5 48.05-2.25 47.75 0.3Q47.1 0.25 44.9 0.13 42.7 0 40.65 0L40.65 0Q38.7 0 37.07 0.05 35.45 0.1 34.9 0.15L34.9 0.15 35.3-2.6Q36.6-2.8 37.4-3.58 38.2-4.35 38.9-6.25L38.9-6.25 48.3-31.7 53.5-32.55 54-32.4Q54.35-31.15 55.55-26.7 56.75-22.25 58.45-16.38 60.15-10.5 61.6-6.05L61.6-6.05Q62.15-4.2 63.07-3.48 64-2.75 66-2.55L66-2.55 66.15-2.3 65.8 0.15Q65.2 0.1 63.52 0.05 61.85 0 60.15 0L60.15 0Q57.6 0 55.25 0.18 52.9 0.35 52.25 0.45L52.25 0.45ZM45.7-13.95L49.7-13.95Q51.7-13.95 53.9-14.15L53.9-14.15 50.45-26.35 49.95-26.35 45.7-13.95ZM68.15 0.6L68.45-2.2Q70.7-2.6 71.47-3.48 72.25-4.35 72.25-6.5L72.25-6.5 72.3-26.65Q72.3-28.25 71.95-28.8 71.6-29.35 70.55-29.35L70.55-29.35Q70.05-29.35 69.55-29.3 69.05-29.25 68.9-29.25L68.9-29.25 68.7-29.55 69.1-32.1Q69.85-32.05 72.1-32 74.35-31.95 77-31.95L77-31.95Q87.05-31.95 91.05-32.55L91.05-32.55 91.3-32.15Q91.15-31.45 90.77-28.88 90.4-26.3 90.2-23.4L90.2-23.4 86.9-23.15Q86.9-23.4 86.95-24.05 87-24.7 87-25.35L87-25.35Q87-26.95 86.6-27.63 86.2-28.3 84.97-28.53 83.75-28.75 80.9-28.75L80.9-28.75Q79.35-28.75 78.75-28.65 78.15-28.55 77.97-28.18 77.8-27.8 77.75-26.9L77.75-26.9 77.35-17.2 82.3-17.15Q83.25-17.15 85.1-17.35 86.95-17.55 87.55-17.65L87.55-17.65 87.85-17.3 87.15-13.75Q86.55-13.8 84.77-13.85 83-13.9 81.1-13.9L81.1-13.9Q79.25-13.9 77.25-13.55L77.25-13.55 77.1-6.25Q77.1-4.25 77.52-3.6 77.95-2.95 79.25-2.95L79.25-2.95Q80.25-2.95 81.27-3.03 82.3-3.1 82.7-3.15L82.7-3.15 82.9-2.8 82.45 0.2Q81.65 0.15 79.4 0.08 77.15 0 74.85 0L74.85 0Q72.95 0 70.85 0.25 68.75 0.5 68.15 0.6L68.15 0.6ZM94.14 0.55L94.44-2.15Q96.74-2.6 97.52-3.48 98.29-4.35 98.29-6.45L98.29-6.45 98.34-26.65Q98.34-28.25 97.97-28.8 97.59-29.35 96.49-29.35L96.49-29.35 94.54-29.25 94.39-29.55 94.74-32.05 98.09-32Q99.19-31.95 101.14-31.95L101.14-31.95Q102.49-31.95 107.49-32.35L107.49-32.35 107.24-29.65Q105.24-29.4 104.54-28.83 103.84-28.25 103.79-26.85L103.79-26.85Q103.54-21.65 103.34-15.53 103.14-9.4 103.14-6.05L103.14-6.05Q103.14-4 103.54-3.33 103.94-2.65 105.19-2.65L105.19-2.65Q105.99-2.65 107.64-2.8L107.64-2.8 107.79-2.55 107.34 0.15Q106.39 0.15 105.84 0.1L105.84 0.1 100.44 0Q97.59 0 94.14 0.55L94.14 0.55ZM120.89 0.6Q118.69 0.6 116.84 0.2 114.99-0.2 113.79-0.68 112.59-1.15 112.59-1.2L112.59-1.2 112.29-1.8Q112.34-2.1 112.49-3.25 112.64-4.4 112.82-6.4 112.99-8.4 112.99-10.4L112.99-10.4 116.04-10.65Q116.04-7.35 116.54-5.68 117.04-4 118.32-3.35 119.59-2.7 122.14-2.7L122.14-2.7Q124.94-2.7 126.64-4 128.34-5.3 128.34-7.5L128.34-7.5Q128.34-9.4 126.72-10.68 125.09-11.95 121.79-13.6L121.79-13.6Q121.64-13.7 120.84-14.1L120.84-14.1Q117.04-16 114.92-17.95 112.79-19.9 112.79-22.95L112.79-22.95Q112.79-25.65 114.39-27.85 115.99-30.05 118.79-31.3 121.59-32.55 125.09-32.55L125.09-32.55Q127.14-32.55 128.94-32.25 130.74-31.95 131.82-31.65 132.89-31.35 133.14-31.25L133.14-31.25 133.34-30.8Q133.19-30.1 132.79-27.63 132.39-25.15 132.19-22.3L132.19-22.3 129.49-22.05 129.09-22.35Q129.14-22.5 129.19-23.15 129.24-23.8 129.24-24.6L129.24-24.6Q129.24-27.05 128.02-28.03 126.79-29 123.74-29L123.74-29Q121.29-29 119.69-27.78 118.09-26.55 118.09-24.7L118.09-24.7Q118.09-22.8 119.74-21.5 121.39-20.2 124.79-18.5L124.79-18.5Q127.79-17 129.57-15.9 131.34-14.8 132.62-13.15 133.89-11.5 133.89-9.3L133.89-9.3Q133.89-6.4 132.27-4.15 130.64-1.9 127.69-0.65 124.74 0.6 120.89 0.6L120.89 0.6ZM148.39 0.6L148.69-2.2Q150.94-2.6 151.71-3.48 152.49-4.35 152.49-6.5L152.49-6.5 152.54-26.65Q152.54-28.25 152.19-28.8 151.84-29.35 150.79-29.35L150.79-29.35Q150.29-29.35 149.79-29.3 149.29-29.25 149.14-29.25L149.14-29.25 148.94-29.55 149.34-32.1Q150.09-32.05 152.34-32 154.59-31.95 157.24-31.95L157.24-31.95Q167.29-31.95 171.29-32.55L171.29-32.55 171.54-32.15Q171.39-31.45 171.01-28.88 170.64-26.3 170.44-23.4L170.44-23.4 167.14-23.15Q167.14-23.4 167.19-24.05 167.24-24.7 167.24-25.35L167.24-25.35Q167.24-26.95 166.84-27.63 166.44-28.3 165.21-28.53 163.99-28.75 161.14-28.75L161.14-28.75Q159.59-28.75 158.99-28.65 158.39-28.55 158.21-28.18 158.04-27.8 157.99-26.9L157.99-26.9 157.59-17.2 162.54-17.15Q163.49-17.15 165.34-17.35 167.19-17.55 167.79-17.65L167.79-17.65 168.09-17.3 167.39-13.75Q166.79-13.8 165.01-13.85 163.24-13.9 161.34-13.9L161.34-13.9Q159.49-13.9 157.49-13.55L157.49-13.55 157.34-6.25Q157.34-4.25 157.76-3.6 158.19-2.95 159.49-2.95L159.49-2.95Q160.49-2.95 161.51-3.03 162.54-3.1 162.94-3.15L162.94-3.15 163.14-2.8 162.69 0.2Q161.89 0.15 159.64 0.08 157.39 0 155.09 0L155.09 0Q153.19 0 151.09 0.25 148.99 0.5 148.39 0.6L148.39 0.6ZM188.08 0.6Q182.63 0.6 179.76-2.2 176.88-5 176.88-10.35L176.88-10.35 176.88-26.65Q176.88-28.25 176.53-28.8 176.18-29.35 175.13-29.35L175.13-29.35Q174.63-29.35 174.13-29.3 173.63-29.25 173.48-29.25L173.48-29.25 173.38-29.45 173.73-32.1Q174.38-32.05 176.23-32 178.08-31.95 180.08-31.95L180.08-31.95Q181.38-31.95 183.23-32.13 185.08-32.3 185.63-32.35L185.63-32.35 185.33-29.6Q183.58-29.4 182.98-28.8 182.38-28.2 182.33-26.85L182.33-26.85 181.93-12.2Q181.93-7.75 183.86-5.35 185.78-2.95 189.38-2.95L189.38-2.95Q192.98-2.95 194.88-4.9 196.78-6.85 196.78-10.6L196.78-10.6Q196.73-14.55 196.66-19.58 196.58-24.6 196.53-26.65L196.53-26.65Q196.43-28.35 196.11-28.85 195.78-29.35 194.78-29.35L194.78-29.35Q194.23-29.35 193.63-29.3 193.03-29.25 192.83-29.25L192.83-29.25 192.73-29.45 193.13-32.1Q193.73-32.1 195.43-32.02 197.13-31.95 198.83-31.95L198.83-31.95Q200.28-31.95 201.98-32.13 203.68-32.3 204.18-32.35L204.18-32.35 203.93-29.65Q202.48-29.4 201.83-29.13 201.18-28.85 200.93-28.38 200.68-27.9 200.68-26.9L200.68-26.9 200.68-10.65Q200.68-5.25 197.41-2.33 194.13 0.6 188.08 0.6L188.08 0.6ZM221.48 0.45L221.28 0.1 221.48-2.35Q224.03-2.55 224.86-2.9 225.68-3.25 225.68-4.2L225.68-4.2Q225.68-5.1 225.33-6.3L225.33-6.3 223.93-11Q222.68-11.05 219.03-11.05L219.03-11.05Q216.58-11.05 213.88-10.7L213.88-10.7 212.28-6.1Q211.88-4.8 211.88-4.35L211.88-4.35Q211.88-3.35 212.51-2.93 213.13-2.5 214.58-2.5L214.58-2.5 217.13-2.5 217.28-2.25 216.98 0.3Q216.33 0.25 214.13 0.13 211.93 0 209.88 0L209.88 0Q207.93 0 206.31 0.05 204.68 0.1 204.13 0.15L204.13 0.15 204.53-2.6Q205.83-2.8 206.63-3.58 207.43-4.35 208.13-6.25L208.13-6.25 217.53-31.7 222.73-32.55 223.23-32.4Q223.58-31.15 224.78-26.7 225.98-22.25 227.68-16.38 229.38-10.5 230.83-6.05L230.83-6.05Q231.38-4.2 232.31-3.48 233.23-2.75 235.23-2.55L235.23-2.55 235.38-2.3 235.03 0.15Q234.43 0.1 232.76 0.05 231.08 0 229.38 0L229.38 0Q226.83 0 224.48 0.18 222.13 0.35 221.48 0.45L221.48 0.45ZM214.93-13.95L218.93-13.95Q220.93-13.95 223.13-14.15L223.13-14.15 219.68-26.35 219.18-26.35 214.93-13.95ZM250.78 0.6Q250.03 0.5 247.58 0.25 245.13 0 243.43 0L243.43 0Q241.83 0 239.93 0.23 238.03 0.45 237.43 0.55L237.43 0.55 237.73-2.25Q239.98-2.65 240.73-3.53 241.48-4.4 241.48-6.5L241.48-6.5 241.53-26.6Q241.53-28.2 241.18-28.75 240.83-29.3 239.83-29.3L239.83-29.3Q239.28-29.3 238.78-29.25 238.28-29.2 238.13-29.2L238.13-29.2 237.93-29.5 238.33-32.1Q238.93-32.1 240.63-32.02 242.33-31.95 244.03-31.95L244.03-31.95Q246.23-31.95 248.55-32.02 250.88-32.1 251.78-32.15L251.78-32.15Q256.68-32.15 260.38-30.3 264.08-28.45 266.1-25.08 268.13-21.7 268.13-17.2L268.13-17.2Q268.13-12.15 265.88-8.1 263.63-4.05 259.65-1.73 255.68 0.6 250.78 0.6L250.78 0.6ZM248.68-28.9Q247.73-28.9 247.4-28.68 247.08-28.45 247.03-27.75L247.03-27.75 246.98-26.45Q246.33-10.95 246.33-6.85L246.33-6.85Q246.33-5.15 246.78-4.28 247.23-3.4 248.38-3.05 249.53-2.7 251.73-2.7L251.73-2.7Q256.68-2.7 259.4-6.15 262.13-9.6 262.13-15.85L262.13-15.85Q262.13-22.35 258.73-25.63 255.33-28.9 248.68-28.9L248.68-28.9Z" opacity="1" transform="matrix(1,0,0,1,0,0)" fill="#ffffff" class="undefined-text-0" data-fill-palette-color="primary" id="text-0"></path></svg></g></svg></g><g transform="matrix(1,0,0,1,0,40.7670279029528)"><svg viewBox="0 0 256 20.382260673312018" height="20.382260673312018" width="256"><g transform="matrix(1,0,0,1,0,0)"><svg width="256" viewBox="0.25 -33 557.6599731445312 44.400001525878906" height="20.382260673312018" data-palette-color="#ffffff"><path d="M37.2-30.6L37.2-31.5 44-31.5 44-30.6 42.15-30.6Q41.45-30.6 41.2-29.9L41.2-29.9 31.95 0 30.25 0 22.1-24.9 14 0 12.3 0 3.05-29.9Q2.8-30.6 2.1-30.6L2.1-30.6 0.25-30.6 0.25-31.5 9.75-31.5 9.75-30.6 7.25-30.6 14.4-6.45 21.25-27.55 20.5-29.9Q20.25-30.6 19.55-30.6L19.55-30.6 17.7-30.6 17.7-31.5 27.2-31.5 27.2-30.6 24.7-30.6 32.25-6.6 39.7-30.6 37.2-30.6ZM54.98-22.2L54.98-22.2Q58.43-22.2 60.43-19.9 62.43-17.6 62.43-13.15L62.43-13.15Q62.43-12.25 62.33-11.15L62.33-11.15 48.68-11.15 48.68-10.8Q48.68-6.05 50.41-3.33 52.13-0.6 54.86-0.6 57.58-0.6 59.33-2 61.08-3.4 61.73-6L61.73-6 62.68-5.8Q62.08-2.75 59.93-1.07 57.78 0.6 54.98 0.6L54.98 0.6Q50.63 0.6 47.76-2.45 44.88-5.5 44.88-10.78 44.88-16.05 47.78-19.13 50.68-22.2 54.98-22.2ZM58.98-14.85L58.98-14.85Q58.98-21 54.38-21L54.38-21Q52.08-21 50.46-18.5 48.83-16 48.73-12.15L48.73-12.15 58.78-12.15Q58.98-13.85 58.98-14.85ZM88.34-2.45Q85.61 0.6 81.21 0.6 76.81 0.6 73.86-2.7L73.86-2.7 73.46 0.4 72.61 0.4 72.61-30.8Q72.61-31.5 71.91-31.5L71.91-31.5 69.56-31.5 69.56-32.4 72.01-32.4Q75.01-32.4 76.21-32.7L76.21-32.7 76.21-14.9Q77.06-18.5 78.94-20.35 80.81-22.2 83.11-22.2L83.11-22.2Q86.26-22.2 88.66-19.05 91.06-15.9 91.06-10.7 91.06-5.5 88.34-2.45ZM82.36-20.3L82.36-20.3Q79.86-20.3 78.04-17.2 76.21-14.1 76.21-8.25L76.21-8.25 76.21-2.05Q78.31-0.65 80.99-0.65 83.66-0.65 85.46-3.3 87.26-5.95 87.26-10.6 87.26-15.25 85.81-17.78 84.36-20.3 82.36-20.3ZM124.73 0.6L124.73 0.6Q121.43 0.6 118.13-1.2L118.13-1.2Q117.03-1.75 116.63-1.75L116.63-1.75Q115.88-1.75 115.83-0.7L115.83-0.7 115.78 0 114.83 0 114.83-8.35 115.73-8.35Q116.18-4.5 118.6-2.68 121.03-0.85 124.35-0.85 127.68-0.85 129.4-2.65 131.13-4.45 131.13-6.9L131.13-6.9Q131.13-10.8 126.63-12.8L126.63-12.8 120.68-15.45Q117.98-16.65 116.63-18.73 115.28-20.8 115.28-23.2L115.28-23.2Q115.28-26.85 117.73-29.48 120.18-32.1 124.78-32.1L124.78-32.1Q127.48-32.1 130.33-30.3L130.33-30.3Q131.28-29.75 131.63-29.75L131.63-29.75Q132.28-29.75 132.33-30.8L132.33-30.8 132.38-31.8 133.33-31.8 133.33-23.15 132.43-23.15Q132.03-27 129.95-28.83 127.88-30.65 124.9-30.65 121.93-30.65 120.3-29.03 118.68-27.4 118.68-25.33 118.68-23.25 119.8-21.6 120.93-19.95 123.13-19L123.13-19 129.13-16.35Q132.13-15 133.65-12.83 135.18-10.65 135.18-8.15L135.18-8.15Q135.18-4.6 132.33-2 129.48 0.6 124.73 0.6ZM147.46-26.9L147.46-26.9 148.21-26.9 148.21-21.6 153.21-21.6 153.21-20.7 148.21-20.7 148.21-3.75Q148.21-1.05 149.71-1.05L149.71-1.05Q150.41-1.05 150.94-1.7 151.46-2.35 151.46-3.2 151.46-4.05 151.31-4.8L151.31-4.8 152.26-4.95Q152.46-4.2 152.46-3.3L152.46-3.3Q152.46-1.5 151.39-0.45 150.31 0.6 148.56 0.6 146.81 0.6 145.71-0.83 144.61-2.25 144.61-5.1L144.61-5.1 144.61-20Q144.61-20.7 143.91-20.7L143.91-20.7 141.56-20.7 141.56-21.6 144.01-21.6Q145.61-21.6 147.46-26.9ZM171.89-11.2L171.89-11.65 171.94-13.4 171.94-15.15Q171.94-21 168.14-21L168.14-21Q166.49-21 165.57-19.88 164.64-18.75 164.64-17.25 164.64-15.75 165.04-14.65L165.04-14.65Q164.19-13.9 162.69-13.9 161.19-13.9 161.19-16.35 161.19-18.8 163.12-20.5 165.04-22.2 168.59-22.2L168.59-22.2Q175.54-22.2 175.54-14L175.54-14 175.54-3.75Q175.54-1.05 177.04-1.05L177.04-1.05Q177.74-1.05 178.27-1.7 178.79-2.35 178.79-3.2 178.79-4.05 178.64-4.8L178.64-4.8 179.59-4.95Q179.79-4.2 179.79-3.3L179.79-3.3Q179.79-1.5 178.72-0.45 177.64 0.6 175.89 0.6 174.14 0.6 173.04-0.83 171.94-2.25 171.94-5.1L171.94-5.1 171.94-6Q171.09-2.6 169.24-1 167.39 0.6 164.97 0.6 162.54 0.6 161.07-0.93 159.59-2.45 159.59-4.98 159.59-7.5 161.94-9.47 164.29-11.45 168.69-11.45L168.69-11.45Q169.64-11.45 171.89-11.2L171.89-11.2ZM166.09-1.3L166.09-1.3Q168.19-1.3 169.87-3.68 171.54-6.05 171.84-10.35L171.84-10.35Q171.34-10.4 170.44-10.4L170.44-10.4Q166.44-10.4 164.72-8.72 162.99-7.05 162.99-4.85L162.99-4.85Q162.99-3.4 163.84-2.35 164.69-1.3 166.09-1.3ZM196.13-21L196.13-21Q193.28-21 191.5-18.28 189.73-15.55 189.73-10.8 189.73-6.05 191.45-3.33 193.18-0.6 195.9-0.6 198.63-0.6 200.38-2 202.13-3.4 202.78-6L202.78-6 203.73-5.8Q203.13-2.75 200.98-1.07 198.83 0.6 196.03 0.6L196.03 0.6Q191.68 0.6 188.8-2.45 185.93-5.5 185.93-10.8 185.93-16.1 188.83-19.15 191.73-22.2 196.13-22.2L196.13-22.2Q199.53-22.2 201.23-20.68 202.93-19.15 202.93-16.6L202.93-16.6Q202.93-13.3 201.08-13.3L201.08-13.3Q199.58-13.3 198.68-14.1L198.68-14.1Q199.38-15.6 199.38-17.23 199.38-18.85 198.55-19.93 197.73-21 196.13-21ZM212.91-1.6L212.91-1.6 212.91-30.8Q212.91-31.5 212.21-31.5L212.21-31.5 209.86-31.5 209.86-32.4 212.31-32.4Q215.31-32.4 216.51-32.7L216.51-32.7 216.51-1.5Q216.51-0.9 217.21-0.9L217.21-0.9 219.56-0.9 219.56 0 209.86 0 209.86-0.9 212.21-0.9Q212.91-0.9 212.91-1.6ZM223.21-20.7L223.21-21.6 229.91-21.6 229.91-20.7 228.06-20.7Q227.66-20.7 227.16-20.2L227.16-20.2 220.71-12.85 228.66-1.3Q228.91-0.9 229.36-0.9L229.36-0.9 231.41-0.9 231.41 0 229.06 0Q226.66 0 225.46 0.3L225.46 0.3 217.46-11.35 225.76-20.7 223.21-20.7ZM264.87 0L251.92 0 251.92-0.9 254.27-0.9Q254.97-0.9 254.97-1.5L254.97-1.5 254.97-30Q254.97-30.6 254.27-30.6L254.27-30.6 251.92-30.6 251.92-31.5 263.62-31.5Q267.37-31.5 270.05-29.45 272.72-27.4 272.72-24.15L272.72-24.15Q272.72-21.65 271.4-19.78 270.07-17.9 267.87-16.95L267.87-16.95Q271.02-16.25 273-14.1 274.97-11.95 274.97-8.38 274.97-4.8 272.02-2.4 269.07 0 264.87 0L264.87 0ZM264.62-16.05L264.62-16.05 259.07-16.05 259.07-1.4 264.62-1.4Q267.62-1.4 269.3-3.6 270.97-5.8 270.97-8.75 270.97-11.7 269.3-13.88 267.62-16.05 264.62-16.05ZM262.57-30.1L262.57-30.1 259.07-30.1 259.07-17.3 262.87-17.3Q265.82-17.3 267.27-19.3 268.72-21.3 268.72-23.98 268.72-26.65 267.22-28.38 265.72-30.1 262.57-30.1ZM293.61-20.7L293.61-21.6 299.96-21.6 299.96-20.7 298.11-20.7Q297.66-20.7 297.41-20L297.41-20 288.76 3.15Q288.61 3.6 288.26 4.5L288.26 4.5 287.71 5.85Q287.56 6.3 287.26 7.08 286.96 7.85 286.76 8.28 286.56 8.7 286.26 9.3L286.26 9.3Q285.91 10.05 285.26 10.73 284.61 11.4 283.91 11.4 283.21 11.4 282.43 10.53 281.66 9.65 281.51 8.65L281.51 8.65Q286.06 6.7 287.71 2.15L287.71 2.15 288.56-0.15 281.16-20Q280.91-20.7 280.46-20.7L280.46-20.7 278.61-20.7 278.61-21.6 287.11-21.6 287.11-20.7 284.61-20.7 290.36-4.9 296.16-20.7 293.61-20.7ZM345.62 0L344.02 0 325.22-27.9 325.22-1.6Q325.22-0.9 325.92-0.9L325.92-0.9 328.27-0.9 328.27 0 320.47 0 320.47-0.9 322.82-0.9Q323.52-0.9 323.52-1.6L323.52-1.6 323.52-30Q323.52-30.6 322.82-30.6L322.82-30.6 320.47-30.6 320.47-31.5 327.82-31.5 343.92-7.7 343.92-29.9Q343.92-30.6 343.22-30.6L343.22-30.6 340.87-30.6 340.87-31.5 348.67-31.5 348.67-30.6 346.32-30.6Q345.62-30.6 345.62-30L345.62-30 345.62 0ZM365.85-11.2L365.85-11.65 365.9-13.4 365.9-15.15Q365.9-21 362.1-21L362.1-21Q360.45-21 359.53-19.88 358.6-18.75 358.6-17.25 358.6-15.75 359-14.65L359-14.65Q358.15-13.9 356.65-13.9 355.15-13.9 355.15-16.35 355.15-18.8 357.08-20.5 359-22.2 362.55-22.2L362.55-22.2Q369.5-22.2 369.5-14L369.5-14 369.5-3.75Q369.5-1.05 371-1.05L371-1.05Q371.7-1.05 372.23-1.7 372.75-2.35 372.75-3.2 372.75-4.05 372.6-4.8L372.6-4.8 373.55-4.95Q373.75-4.2 373.75-3.3L373.75-3.3Q373.75-1.5 372.68-0.45 371.6 0.6 369.85 0.6 368.1 0.6 367-0.83 365.9-2.25 365.9-5.1L365.9-5.1 365.9-6Q365.05-2.6 363.2-1 361.35 0.6 358.93 0.6 356.5 0.6 355.03-0.93 353.55-2.45 353.55-4.98 353.55-7.5 355.9-9.47 358.25-11.45 362.65-11.45L362.65-11.45Q363.6-11.45 365.85-11.2L365.85-11.2ZM360.05-1.3L360.05-1.3Q362.15-1.3 363.83-3.68 365.5-6.05 365.8-10.35L365.8-10.35Q365.3-10.4 364.4-10.4L364.4-10.4Q360.4-10.4 358.68-8.72 356.95-7.05 356.95-4.85L356.95-4.85Q356.95-3.4 357.8-2.35 358.65-1.3 360.05-1.3ZM386.79-27.6L386.79-27.6 386.79-21.6 391.79-21.6 391.79-20.7 386.79-20.7 386.79-1.5Q386.79-0.9 387.59-0.9L387.59-0.9 390.84-0.9 390.84 0 380.14 0 380.14-0.9 382.49-0.9Q383.19-0.9 383.19-1.6L383.19-1.6 383.19-20Q383.19-20.7 382.49-20.7L382.49-20.7 380.14-20.7 380.14-21.6 383.24-21.6Q383.54-27.4 385.41-30.2 387.29-33 389.91-33 392.54-33 393.74-31.73 394.94-30.45 394.94-29L394.94-29Q394.94-26 393.19-26L393.19-26Q391.74-26 390.84-26.75L390.84-26.75Q391.59-28.25 391.59-29.4L391.59-29.4Q391.59-31.85 389.54-31.85L389.54-31.85Q386.79-31.85 386.79-27.6ZM401.52-1.6L401.52-1.6 401.52-20Q401.52-20.7 400.82-20.7L400.82-20.7 398.47-20.7 398.47-21.6 400.92-21.6Q403.92-21.6 405.12-21.9L405.12-21.9 405.12-1.5Q405.12-0.9 405.82-0.9L405.82-0.9 408.17-0.9 408.17 0 398.47 0 398.47-0.9 400.82-0.9Q401.52-0.9 401.52-1.6ZM401.64-27.13Q400.97-27.8 400.97-28.8 400.97-29.8 401.64-30.48 402.32-31.15 403.32-31.15 404.32-31.15 404.99-30.48 405.67-29.8 405.67-28.8 405.67-27.8 404.99-27.13 404.32-26.45 403.32-26.45 402.32-26.45 401.64-27.13ZM421.55-13.55L421.55-13.55 426.75-11.6Q428.6-10.9 429.57-9.47 430.55-8.05 430.55-6.3L430.55-6.3Q430.55-3.6 428.4-1.5 426.25 0.6 422.62 0.6 419 0.6 415.8-0.75L415.8-0.75Q416.1-1.95 416.1-4.95L416.1-4.95 416.1-6.95 417-6.95 417.35-4.35Q417.8-0.6 422.6-0.6L422.6-0.6Q424.75-0.6 426.17-1.93 427.6-3.25 427.6-4.95L427.6-4.95Q427.6-7.3 424.75-8.35L424.75-8.35 419.55-10.3Q417.8-10.95 416.9-12.35 416-13.75 416-15.5L416-15.5Q416-18.15 417.9-20.18 419.8-22.2 422.67-22.2 425.55-22.2 429.15-20.85L429.15-20.85Q428.85-19.65 428.85-16.65L428.85-16.65 428.85-14.65 427.95-14.65 427.6-17.25Q427.2-20.85 423.05-20.85L423.05-20.85Q421.2-20.85 420-19.7 418.8-18.55 418.8-17L418.8-17Q418.8-14.6 421.55-13.55ZM456.16-30.6L453.81-30.6 453.81-31.5 469.36-31.5Q473.31-31.5 474.91-31.95L474.91-31.95Q474.46-29.9 474.46-26.25L474.46-26.25 474.46-23.9 473.31-23.9 472.56-29Q472.46-30.1 471.16-30.1L471.16-30.1 460.96-30.1 460.96-16.45 470.81-16.45Q471.31-16.45 471.41-17.15L471.41-17.15 471.66-20.25 472.56-20.25 472.56-11.25 471.66-11.25 471.41-14.35Q471.31-15.05 470.81-15.05L470.81-15.05 460.96-15.05 460.96-1.6Q460.96-0.9 461.66-0.9L461.66-0.9 466.01-0.9 466.01 0 453.81 0 453.81-0.9 456.16-0.9Q456.86-0.9 456.86-1.6L456.86-1.6 456.86-30Q456.86-30.6 456.16-30.6L456.16-30.6ZM500.15-21.9L500.15-21.9 500.15-1.6Q500.15-0.9 500.85-0.9L500.85-0.9 503.2-0.9 503.2 0 500.75 0Q497.75 0 496.55 0.3L496.55 0.3 496.55-6.45Q494.85 0.6 489.05 0.6L489.05 0.6Q486.45 0.6 484.65-1.28 482.85-3.15 482.85-7L482.85-7 482.85-20Q482.85-20.7 482.15-20.7L482.15-20.7 479.8-20.7 479.8-21.6 482.25-21.6Q485.25-21.6 486.45-21.9L486.45-21.9 486.45-6.35Q486.45-3.8 487.57-2.58 488.7-1.35 490.55-1.35L490.55-1.35Q493.2-1.35 494.87-4.58 496.55-7.8 496.55-13.85L496.55-13.85 496.55-20Q496.55-20.7 495.85-20.7L495.85-20.7 493.5-20.7 493.5-21.6 495.95-21.6Q498.95-21.6 500.15-21.9ZM522.38-11.2L522.38-11.65 522.43-13.4 522.43-15.15Q522.43-21 518.63-21L518.63-21Q516.98-21 516.05-19.88 515.13-18.75 515.13-17.25 515.13-15.75 515.53-14.65L515.53-14.65Q514.68-13.9 513.18-13.9 511.68-13.9 511.68-16.35 511.68-18.8 513.6-20.5 515.53-22.2 519.08-22.2L519.08-22.2Q526.03-22.2 526.03-14L526.03-14 526.03-3.75Q526.03-1.05 527.53-1.05L527.53-1.05Q528.23-1.05 528.75-1.7 529.28-2.35 529.28-3.2 529.28-4.05 529.13-4.8L529.13-4.8 530.08-4.95Q530.28-4.2 530.28-3.3L530.28-3.3Q530.28-1.5 529.2-0.45 528.13 0.6 526.38 0.6 524.63 0.6 523.53-0.83 522.43-2.25 522.43-5.1L522.43-5.1 522.43-6Q521.58-2.6 519.73-1 517.88 0.6 515.45 0.6 513.03 0.6 511.55-0.93 510.08-2.45 510.08-4.98 510.08-7.5 512.43-9.47 514.78-11.45 519.18-11.45L519.18-11.45Q520.13-11.45 522.38-11.2L522.38-11.2ZM516.58-1.3L516.58-1.3Q518.68-1.3 520.35-3.68 522.03-6.05 522.33-10.35L522.33-10.35Q521.83-10.4 520.93-10.4L520.93-10.4Q516.93-10.4 515.2-8.72 513.48-7.05 513.48-4.85L513.48-4.85Q513.48-3.4 514.33-2.35 515.18-1.3 516.58-1.3ZM551.26 0.3L551.26 0.3 551.26-4Q548.46 0.6 544.64 0.6 540.81 0.6 538.61-2.45 536.41-5.5 536.41-10.75 536.41-16 539.21-19.1 542.01-22.2 546.26-22.2L546.26-22.2Q549.01-22.2 551.26-20.85L551.26-20.85 551.26-30.8Q551.26-31.5 550.56-31.5L550.56-31.5 548.21-31.5 548.21-32.4 550.66-32.4Q553.66-32.4 554.86-32.7L554.86-32.7 554.86-1.6Q554.86-0.9 555.56-0.9L555.56-0.9 557.91-0.9 557.91 0 555.46 0Q552.46 0 551.26 0.3ZM546.39-20.7Q543.81-20.7 542.01-18.13 540.21-15.55 540.21-10.95 540.21-6.35 541.69-3.83 543.16-1.3 545.41-1.3L545.41-1.3Q548.66-1.3 551.26-5.85L551.26-5.85 551.26-19.3Q548.96-20.7 546.39-20.7Z" opacity="1" transform="matrix(1,0,0,1,0,0)" fill="#ffffff" class="undefined-text-1" data-fill-palette-color="secondary" id="text-1"></path></svg></g></svg></g></svg></g></svg></g><g transform="matrix(1,0,0,1,67.46253564535871,0)"><svg viewBox="0 0 121.07492870928259 84.50831681239798" height="84.50831681239798" width="121.07492870928259"><g><svg xmlns="http://www.w3.org/2000/svg" xmlns:xlink="http://www.w3.org/1999/xlink" version="1.1" x="8" y="0" viewBox="0 9.78600025177002 100.0003433227539 80.42699432373047" enable-background="new 0 0 100 100" xml:space="preserve" width="105.07492870928259" height="84.50831681239798" class="icon-icon-0" data-fill-palette-color="accent" id="icon-0"><path d="M49.942 52.994c13.552-0.488 27.103-0.977 40.653-1.465-2.527-4.177-3.159-7.831-7.989-8.461-7.229-0.94-14.458-1.883-21.688-2.826-14.023-1.827-28.05-3.654-42.075-5.48C20.101 36.792 39.724 53.361 49.942 52.994z" fill="#ffffff" data-fill-palette-color="accent"></path><path d="M0 9.786c4.391 7.257 26.615 23.072 32.953 23.886 17.33 2.231 34.657 4.46 51.986 6.688-3.393-5.607-4.18-9.35-10.312-10.959-8.904-2.341-17.812-4.683-26.717-7.023C31.94 18.182 15.97 13.984 0 9.786z" fill="#ffffff" data-fill-palette-color="accent"></path><path d="M63.108 66.207c10.413-2.219 20.826-4.439 31.241-6.66-2.028-3.346-2.034-5.359-5.827-5.189-6.158 0.273-12.314 0.549-18.471 0.822-11.343 0.506-22.686 1.014-34.028 1.518C37.298 58.064 54.94 67.947 63.108 66.207z" fill="#ffffff" data-fill-palette-color="accent"></path><path d="M87.682 90.213c5.725-3.719 7.262-7.721 10.519-13.807 3.651-6.824 1.257-7.844-2.821-14.596-0.417-0.688-5.842 0.232-6.453 0.904-0.745 0.818-0.248 5.455-0.294 6.496C88.315 76.211 87.998 83.213 87.682 90.213z" fill="#ffffff" data-fill-palette-color="accent"></path><path d="M86.35 63.447c-3.795 0.809-8.604 0.191-9.572 4.229-1.373 5.736-2.746 11.475-4.12 17.211C81.904 82.678 86.028 71.582 86.35 63.447z" fill="#ffffff" data-fill-palette-color="accent"></path><path d="M74.666 66.121c-9.148 1.953-8.956 4.611-12.879 13.18C68.007 78.711 73.811 71.941 74.666 66.121z" fill="#ffffff" data-fill-palette-color="accent"></path></svg></g></svg></g><g><rect width="67.46253564535871" height="2.9742610064923833" y="80.5340558059056" x="188.53746435464132" fill="#ffffff" data-fill-palette-color="accent"></rect><rect width="67.46253564535871" height="2.9742610064923833" y="80.5340558059056" x="0" fill="#ffffff" data-fill-palette-color="accent"></rect><rect width="67.46253564535871" height="2.9742610064923833" y="74.58553379292083" x="188.53746435464132" fill="#ffffff" data-fill-palette-color="accent"></rect><rect width="67.46253564535871" height="2.9742610064923833" y="74.58553379292083" x="0" fill="#ffffff" data-fill-palette-color="accent"></rect></g></svg></g></svg></g></svg></g><defs></defs></svg><rect width="512" height="320" fill="none" stroke="none" visibility="hidden"></rect></g></svg></g></svg>